<svg xmlns="http://www.w3.org/2000/svg" width="371.153" height="307.349">
<style>path { fill: #000 } @media (prefers-color-scheme: dark) { path { fill: #fff; } }</style>
<path d="M198 306.048c-2.475-.7-12.979-5.385-23.342-10.41-10.363-5.026-19.002-9.138-19.196-9.138-.805 0-32.777-16.016-34.002-17.033-.732-.608-1.64-2.512-2.018-4.232-.58-2.638-.249-3.504 2.11-5.534 2.097-1.803 3.568-2.275 5.873-1.884 3.05.517 15.051 6.087 52.575 24.404 21.155 10.326 26.748 11.788 35.763 9.348 11.783-3.188 18.348-16.755 13.341-27.569-2.418-5.223-5.951-8.31-15.104-13.198-9.945-5.311-16.335-8.868-23-12.8-3.025-1.786-10-5.635-15.5-8.553-14.33-7.605-15.3-8.13-22.548-12.21-3.601-2.027-8.326-4.341-10.5-5.143-2.174-.802-6.427-2.406-9.452-3.564-21.972-8.416-46.238-8.83-85.405-1.459-11.308 2.128-40.62 8.56-45.845 10.06-1.538.44-1.75-.281-1.75-5.96 0-6.067.137-6.455 2.25-6.35 1.238.06 7.763-1.188 14.5-2.775L29 199.16v-52.649c0-58.376.083-59.244 6.35-66.566 3.58-4.181 6.512-5.885 48.15-27.97 13.2-7 27.6-14.64 32-16.978a67586.681 67586.681 0 0 1 53-28.103l13-6.884 9-.006 9-.005L214 7.61c7.975 4.185 28.45 15.029 45.5 24.097A22526.46 22526.46 0 0 0 301 53.735c26.119 13.784 40.664 22.025 43.313 24.54 1.579 1.499 3.841 4.525 5.029 6.725 2.149 3.983 2.16 4.321 2.432 79.1l.275 75.101 2.422 1.104c6.8 3.098 15.49 14.715 15.52 20.745.004 1.127.464 2.505 1.02 3.061.682.682-1.098 2.702-5.463 6.2-6.088 4.88-8.216 6.182-7.25 4.439.228-.412.067-4.228-.359-8.48-.549-5.487-1.42-8.638-3.007-10.865-3.092-4.343-11.08-7.883-17.814-7.895-5.393-.01-10.893 2.29-28.618 11.97-2.75 1.502-10.85 5.778-18 9.503-7.15 3.724-15.7 8.23-19 10.01-3.3 1.783-12.3 6.514-20 10.515-16.256 8.447-22.603 11.885-24 12.999-.55.439-3.887 1.742-7.415 2.895-7.181 2.348-15.235 2.584-22.085.646zm82.021-45.704 17.272-9.155-2.421-1.764c-1.332-.97-8.261-6.412-15.399-12.094-7.138-5.682-23.485-18.607-36.327-28.723l-23.35-18.391-9.642 9.642-9.641 9.641 29.987 30c16.493 16.5 30.496 30 31.118 30 .622 0 8.904-4.12 18.403-9.156zm-75.038-71.03 26.671-27.187 6.423 2.436c5.194 1.97 8.24 2.433 15.923 2.413 16.101-.04 19.806-2.113 47-26.312 28.252-25.14 32-28.842 32-31.604 0-4.609-5.807-7.804-10.054-5.531-1.232.66-12.313 10.148-24.624 21.085-20.798 18.478-22.654 19.886-26.207 19.886-6.38 0-11.837-6.913-9.26-11.73.564-1.053 9.246-9.308 19.294-18.343C307.055 92.032 309 90.091 309 87.632c0-3.214-3.496-6.132-7.346-6.132-2.825 0-5.042 1.525-14.25 9.802-28.041 25.206-34.997 31.13-37.203 31.684-3.144.789-9.288-2.288-11.09-5.555-.81-1.468-1.152-3.632-.797-5.047.382-1.52 6.911-8.065 16.891-16.93 30.97-27.514 32.208-28.986 27.948-33.245-1.325-1.326-3.383-2.109-5.539-2.109-3.714 0-6.283 1.928-22.67 17.02-4.705 4.334-14.38 13.134-21.5 19.556-16.825 15.176-19.676 19.647-20.256 31.767-.364 7.621-.095 9.483 2.186 15.124 2.527 6.25 2.548 6.476.728 7.933-1.03.825-5.637 4.394-10.238 7.93-4.6 3.537-15.789 12.326-24.864 19.53-9.075 7.204-19.317 15.293-22.76 17.975-3.444 2.683-6.037 5.101-5.762 5.376.618.619 24.868 14.124 25.428 14.162.223.015 12.408-12.207 27.077-27.16zm-32.382-17.785c2.145-1.635 5.577-4.222 7.628-5.75 2.05-1.529 3.738-3.037 3.75-3.352.019-.511-12.601-10.877-17.325-14.23-1.751-1.243-1.764-1.588-.25-6.685 1.804-6.075 2.043-16.36.533-22.91-2.486-10.783-10.915-23.907-21.246-33.077-17.038-15.125-41.35-23.495-58.2-20.038-12.084 2.48-19.645 7.766-24.735 17.29C60.807 86.426 60.5 88.499 60.5 98c0 10.869.05 11.105 4.221 19.827 5.227 10.93 11.978 19.415 21.279 26.744 8.972 7.07 17.341 11.457 27.432 14.381 11.93 3.457 20.76 4.127 28.448 2.157 3.455-.885 7.044-1.609 7.976-1.609.932 0 5.047 3.375 9.144 7.5s7.957 7.5 8.576 7.5c.62 0 2.881-1.337 5.025-2.971z"/></svg>